#!OML:ASF F:\VICON\USERDATA\INSTALL\Justin_Nancy\Justin_Nancy.ASF
:FULLY-SPECIFIED
:DEGREES
154
root 0.865709 17.8083 -15.5331 7.17214 -1.91935 0.980026
lowerback 6.01131 -0.166245 -2.13481
upperback -0.37497 -0.278424 2.5841
thorax -3.7396 -0.0707299 3.90655
lowerneck -16.6149 -4.15608 -10.4878
upperneck 23.9339 -4.20948 4.92615
head 10.8056 -2.29317 2.93587
rclavicle 7.45443e-015 -2.78299e-014
rhumerus -32.3044 -2.64986 -82.0631
rradius 44.1699
rwrist 0.770882
rhand -10.4075 11.3669
rfingers 7.12502
rthumb 15.5912 -18.0247
lclavicle 7.45443e-015 -2.78299e-014
lhumerus -31.1093 4.73252 86.876
lradius 37.0932
lwrist -4.43323
lhand -16.7683 17.7707
lfingers 7.12502
lthumb 9.45888 47.5385
rfemur -13.506 4.93555 19.1593
rtibia 23.3735
rfoot -11.9109 -10.5634
rtoes 6.6871
lfemur -12.157 -3.36314 -19.6844
ltibia 20.4851
lfoot -12.328 5.10286
ltoes -2.29305
155
root 0.865522 17.8072 -15.5262 7.10571 -1.81725 0.953077
lowerback 6.01803 -0.179214 -2.06569
upperback -0.314374 -0.29152 2.58107
thorax -3.67965 -0.0805294 3.86476
lowerneck -16.6978 -4.21216 -10.4501
upperneck 23.9675 -4.28096 4.88963
head 10.8388 -2.32599 2.90518
rclavicle -1.27222e-014 3.97569e-015
rhumerus -32.2586 -2.49961 -82.1411
rradius 44.3569
rwrist 0.994991
rhand -10.6979 11.4399
rfingers 7.12502
rthumb 15.3115 -17.9733
lclavicle -1.27222e-014 3.97569e-015
lhumerus -31.0389 4.53829 86.9195
lradius 37.1909
lwrist -4.34064
lhand -17.0905 16.6942
lfingers 7.12502
lthumb 9.14802 46.4758
rfemur -13.3769 4.96222 19.2046
rtibia 23.3545
rfoot -11.9476 -10.6619
rtoes 6.65281
lfemur -12.0821 -3.32742 -19.665
ltibia 20.5423
lfoot -12.3974 5.05832
ltoes -2.62605
156
root 0.867542 17.806 -15.518 7.07095 -1.81153 0.872769
lowerback 5.99257 -0.182493 -1.96641
upperback -0.31382 -0.286974 2.62414
thorax -3.66535 -0.0800299 3.8527
lowerneck -16.6491 -4.22558 -10.4968
upperneck 23.9903 -4.28454 4.85896
head 10.8392 -2.33659 2.90193
rclavicle 5.86415e-015 2.46493e-014
rhumerus -32.3432 -2.32107 -82.1462
rradius 44.5722
rwrist 1.1134
rhand -10.7063 11.9198
rfingers 7.12502
rthumb 15.3035 -17.494
lclavicle 5.86415e-015 2.46493e-014
lhumerus -31.031 4.49829 86.969
lradius 37.2347
lwrist -4.3619
lhand -17.0616 16.6215
lfingers 7.12502
lthumb 9.1759 46.4018
rfemur -13.2782 4.95844 19.2973
rtibia 23.3102
rfoot -11.9986 -10.6612
rtoes 6.34892
lfemur -12.0795 -3.35359 -19.5739
ltibia 20.5836
lfoot -12.4016 5.06467
ltoes -2.07204
157
root 0.869344 17.8059 -15.512 7.03798 -1.84908 0.847355
lowerback 6.01418 -0.17948 -1.94562
upperback -0.354777 -0.280039 2.65449
thorax -3.72057 -0.0751984 3.87271
lowerneck -16.5511 -4.20335 -10.4788
upperneck 24.0394 -4.24614 4.76692
head 10.8329 -2.33065 2.87253
rclavicle 8.05078e-015 -4.77083e-015
rhumerus -32.4797 -2.1137 -82.1603
rradius 44.8256
rwrist 1.10598
rhand -10.5434 12.1197
rfingers 7.12502
rthumb 15.4603 -17.282
lclavicle 8.05078e-015 -4.77083e-015
lhumerus -31.0865 4.382 87.0318
lradius 37.306
lwrist -4.30258
lhand -16.6496 17.5457
lfingers 7.12502
lthumb 9.57348 47.3082
rfemur -13.23 5.02757 19.3197
rtibia 23.3123
rfoot -12.0101 -10.6939
rtoes 6.38554
lfemur -12.0797 -3.41119 -19.5428
ltibia 20.5999
lfoot -12.3987 5.09076
ltoes -1.4637
158
root 0.869149 17.805 -15.5069 6.98714 -1.87766 0.831926
lowerback 6.05784 -0.165543 -1.92538
upperback -0.371287 -0.260544 2.64271
thorax -3.76399 -0.0650589 3.84786
lowerneck -16.5212 -4.18594 -10.4246
upperneck 24.1371 -4.23717 4.74499
head 10.8604 -2.32632 2.85845
rclavicle -9.93923e-016 8.74653e-015
rhumerus -32.6107 -1.91803 -82.2362
rradius 45.1138
rwrist 1.06304
rhand -10.4663 12.2366
rfingers 7.12502
rthumb 15.5346 -17.1595
lclavicle -9.93923e-016 8.74653e-015
lhumerus -31.139 4.12797 87.0467
lradius 37.4644
lwrist -4.2543
lhand -16.7449 18.2471
lfingers 7.12502
lthumb 9.48147 48.0138
rfemur -13.1712 5.16318 19.3411
rtibia 23.3526
rfoot -12.0315 -10.7649
rtoes 6.77809
lfemur -12.0076 -3.41228 -19.5379
ltibia 20.5917
lfoot -12.3905 5.16208
ltoes -1.6698
159
root 0.872493 17.8059 -15.5017 6.959 -1.78605 0.874525
lowerback 6.07133 -0.201887 -1.92125
upperback -0.354088 -0.308979 2.64386
thorax -3.74981 -0.0896969 3.85111
lowerneck -16.5051 -4.17325 -10.4266
upperneck 24.1246 -4.21752 4.73532
head 10.8508 -2.31869 2.85814
rclavicle -5.66536e-015 3.97569e-015
rhumerus -32.6183 -1.73059 -82.255
rradius 45.3451
rwrist 1.1055
rhand -10.7596 12.4069
rfingers 7.12502
rthumb 15.2521 -17.0108
lclavicle -5.66536e-015 3.97569e-015
lhumerus -31.1773 3.95649 87.0949
lradius 37.7377
lwrist -4.12388
lhand -17.2737 18.2722
lfingers 7.12502
lthumb 8.97121 48.0614
rfemur -13.1081 5.05014 19.296
rtibia 23.4035
rfoot -12.0885 -10.7043
rtoes 6.89856
lfemur -11.9516 -3.45911 -19.5941
ltibia 20.5596
lfoot -12.3862 5.09685
ltoes -1.50262
160
root 0.878424 17.8056 -15.4965 6.92519 -1.75292 0.990737
lowerback 6.13363 -0.238315 -1.98097
upperback -0.361376 -0.362262 2.64576
thorax -3.78784 -0.114245 3.89277
lowerneck -16.5612 -4.15122 -10.4666
upperneck 24.19 -4.16112 4.70227
head 10.8817 -2.30113 2.86135
rclavicle 1.59028e-015 7.95139e-015
rhumerus -32.6165 -1.4502 -82.2421
rradius 45.4235
rwrist 1.16068
rhand -11.2446 12.8491
rfingers 7.12502
rthumb 14.7849 -16.6036
lclavicle 1.59028e-015 7.95139e-015
lhumerus -31.3483 3.8954 87.1559
lradius 38.1471
lwrist -4.09806
lhand -17.0643 18.8519
lfingers 7.12502
lthumb 9.1733 48.6324
rfemur -13.055 4.85002 19.1632
rtibia 23.441
rfoot -12.1344 -10.6232
rtoes 6.47241
lfemur -11.8976 -3.4143 -19.7663
ltibia 20.5413
lfoot -12.371 5.04862
ltoes -1.85079
161
root 0.881207 17.8054 -15.4893 6.87576 -1.77896 1.06201
lowerback 6.19011 -0.2265 -2.00354
upperback -0.367109 -0.349811 2.61279
thorax -3.82667 -0.107172 3.87079
lowerneck -16.7153 -4.11476 -10.3924
upperneck 24.4161 -4.10339 4.64695
head 10.9876 -2.2767 2.83885
rclavicle 1.51076e-014 1.98785e-014
rhumerus -32.6935 -1.30743 -82.2739
rradius 45.6254
rwrist 1.31533
rhand -11.5045 13.0749
rfingers 7.12502
rthumb 14.5345 -16.3959
lclavicle 1.51076e-014 1.98785e-014
lhumerus -31.5308 3.69875 87.1544
lradius 38.6154
lwrist -4.28581
lhand -15.0301 20.7452
lfingers 7.12502
lthumb 11.1357 50.4297
rfemur -12.9908 4.75606 19.0863
rtibia 23.4579
rfoot -12.131 -10.636
rtoes 5.80836
lfemur -11.8162 -3.33652 -19.8838
ltibia 20.5446
lfoot -12.3966 5.03387
ltoes -2.25386
162
root 0.881143 17.8048 -15.4812 6.86424 -1.81162 1.02499
lowerback 6.16208 -0.170027 -1.92804
upperback -0.302298 -0.270832 2.57423
thorax -3.75043 -0.0719441 3.77924
lowerneck -17.0475 -4.11477 -10.224
upperneck 24.6656 -4.11221 4.61779
head 11.141 -2.26846 2.79894
rclavicle 1.19271e-014 -1.11319e-014
rhumerus -32.6501 -1.3258 -82.3294
rradius 45.9176
rwrist 1.4462
rhand -11.5539 13.2243
rfingers 7.12502
rthumb 14.4868 -16.25
lclavicle 1.19271e-014 -1.11319e-014
lhumerus -31.4286 3.3252 87.1881
lradius 38.8822
lwrist -4.27128
lhand -14.0854 20.8428
lfingers 7.12502
lthumb 12.0468 50.476
rfemur -12.9627 4.76484 19.129
rtibia 23.4582
rfoot -12.1238 -10.6661
rtoes 5.66223
lfemur -11.7704 -3.35465 -19.8509
ltibia 20.5643
lfoot -12.4727 5.09209
ltoes -0.891702
163
root 0.879346 17.8028 -15.4759 6.89826 -1.81641 1.01475
lowerback 6.10567 -0.159901 -1.92555
upperback -0.257252 -0.257148 2.57602
thorax -3.67301 -0.0670561 3.7773
lowerneck -17.2089 -4.14426 -10.2432
upperneck 24.7507 -4.1448 4.66367
head 11.2089 -2.27876 2.81379
rclavicle 7.45443e-015 -3.18055e-015
rhumerus -32.6213 -1.07393 -82.4069
rradius 46.2655
rwrist 1.39616
rhand -11.6832 13.7696
rfingers 7.12502
rthumb 14.3623 -15.7136
lclavicle 7.45443e-015 -3.18055e-015
lhumerus -31.3304 3.07057 87.2588
lradius 39.1835
lwrist -3.5873
lhand -16.1553 18.8223
lfingers 7.12502
lthumb 10.0503 48.5624
rfemur -12.9755 4.81745 19.1475
rtibia 23.428
rfoot -12.0192 -10.702
rtoes 5.83237
lfemur -11.8111 -3.34405 -19.8282
ltibia 20.6016
lfoot -12.4971 5.08665
ltoes 0.369758
164
root 0.88012 17.8012 -15.4731 6.90623 -1.74478 1.04393
lowerback 6.10808 -0.187013 -1.93415
upperback -0.269916 -0.293378 2.58764
thorax -3.68454 -0.0844445 3.79778
lowerneck -17.1034 -4.15843 -10.2875
upperneck 24.7378 -4.16446 4.66669
head 11.1866 -2.2926 2.82014
rclavicle 9.0447e-015 -1.74931e-014
rhumerus -32.7365 -0.753195 -82.4501
rradius 46.6575
rwrist 1.47348
rhand -11.809 14.2385
rfingers 7.12502
rthumb 14.2411 -15.2533
lclavicle 9.0447e-015 -1.74931e-014
lhumerus -31.4338 2.87394 87.3387
lradius 39.8004
lwrist -2.69236
lhand -16.8679 19.5281
lfingers 7.12502
lthumb 9.36276 49.3002
rfemur -12.9519 4.85578 19.1253
rtibia 23.3956
rfoot -11.9316 -10.7795
rtoes 6.16409
lfemur -11.8223 -3.39535 -19.8374
ltibia 20.6376
lfoot -12.5486 5.00163
ltoes -0.140399
165
root 0.883778 17.8021 -15.4685 6.90102 -1.65309 0.970651
lowerback 6.12161 -0.213031 -1.81634
upperback -0.292885 -0.317829 2.62757
thorax -3.71438 -0.0977072 3.77532
lowerneck -16.9258 -4.15105 -10.2902
upperneck 24.6944 -4.16536 4.64091
head 11.1352 -2.29789 2.81205
rclavicle -2.08724e-015 2.3059e-014
rhumerus -32.9576 -0.467687 -82.476
rradius 47.2275
rwrist 1.71563
rhand -11.9642 14.2363
rfingers 7.12502
rthumb 14.0915 -15.266
lclavicle -2.08724e-015 2.3059e-014
lhumerus -31.5768 2.80229 87.3974
lradius 40.3766
lwrist -2.33902
lhand -16.0202 21.1465
lfingers 7.12502
lthumb 10.1807 50.8802
rfemur -12.8959 4.85053 19.208
rtibia 23.3718
rfoot -11.9336 -10.8048
rtoes 6.38287
lfemur -11.8193 -3.51321 -19.7446
ltibia 20.6738
lfoot -12.6908 4.99594
ltoes -1.10234
166
root 0.888758 17.8031 -15.4614 6.87329 -1.64297 0.903549
lowerback 6.15781 -0.207239 -1.70042
upperback -0.322495 -0.300184 2.66031
thorax -3.76725 -0.0896546 3.74295
lowerneck -16.8546 -4.14548 -10.3137
upperneck 24.7838 -4.15391 4.61531
head 11.1542 -2.30047 2.81017
rclavicle 3.77691e-015 -2.14687e-014
rhumerus -33.1111 -0.282878 -82.4592
rradius 47.6444
rwrist 1.96653
rhand -12.1473 14.2383
rfingers 7.12502
rthumb 13.915 -15.2762
lclavicle 3.77691e-015 -2.14687e-014
lhumerus -31.7566 2.76271 87.4183
lradius 40.7937
lwrist -2.23783
lhand -16.0975 20.3725
lfingers 7.12502
lthumb 10.1061 50.1098
rfemur -12.8072 4.81998 19.2714
rtibia 23.346
rfoot -12.0837 -10.7498
rtoes 6.50767
lfemur -11.7948 -3.63707 -19.6886
ltibia 20.7332
lfoot -12.7396 5.12191
ltoes -1.40719
167
root 0.889677 17.8014 -15.457 6.85044 -1.74528 0.861038
lowerback 6.16755 -0.158259 -1.65922
upperback -0.27254 -0.231994 2.67449
thorax -3.72626 -0.0576781 3.72767
lowerneck -17.0067 -4.18457 -10.3406
upperneck 24.8785 -4.18935 4.62663
head 11.224 -2.31731 2.81324
rclavicle 1.98785e-016 -7.95139e-016
rhumerus -32.9988 -0.258243 -82.4226
rradius 47.8897
rwrist 2.13483
rhand -12.1152 14.3629
rfingers 7.12502
rthumb 13.946 -15.1494
lclavicle 1.98785e-016 -7.95139e-016
lhumerus -31.7902 2.60559 87.4519
lradius 41.2363
lwrist -2.05142
lhand -16.0954 20.5755
lfingers 7.12502
lthumb 10.1081 50.3127
rfemur -12.776 4.89638 19.3046
rtibia 23.3253
rfoot -12.1345 -10.725
rtoes 6.43605
lfemur -11.7503 -3.64892 -19.651
ltibia 20.7668
lfoot -12.7391 5.22265
ltoes -1.54072
